PathFileType	4	(X/Y/Z)	OpenSim_Sub07_EMGBaseline_Gyro.trc
DataRate	CameraRate	NumFrames	NumMarkers	Units	OrigDataRate	OrigDataStartFrame	OrigNumFrames
100	100	34	8	m	100	1	6828
Frame#	Time	torso_imu_offset_imu	pelvis_imu_offset_imu	tibia_r_imu_offset_imu	femur_r_imu_offset_imu	tibia_l_imu_offset_imu	femur_l_imu_offset_imu	toes_r_imu_offset_imu	toes_l_imu_offset_imu
				X1	Y1	Z1	X2	Y2	Z2	X3	Y3	Z3	X4	Y4	Z4	X5	Y5	Z5	X6	Y6	Z6	X7	Y7	Z7	X8		Y8	Z8	

1	0	-0.00759100	0.03302200	-0.00870800	-0.00950300	-0.00065300	-0.01315500	-0.00850700	-0.00358600	0.00117400	-0.01607600	0.01714000	-0.01799800	-0.01265600	0.00840000	0.00700300	-0.01624000	-0.01195400	0.01312600	0.00000000	0.00000000	-0.00000000	0.00391000	0.00387000	0.00020700
2	0.01000000	-0.00759300	0.03302500	-0.00871200	-0.01326500	0.00452400	-0.00833900	-0.00403900	-0.00378300	-0.00178600	-0.02537600	0.01089800	-0.02099600	-0.00987100	0.00660000	0.00857700	-0.03175400	-0.01512200	0.01270400	0.00081900	-0.00048000	0.00198300	0.00195000	0.00716600	0.00731100
3	0.02000000	-0.00684400	0.03049600	-0.01136200	-0.00605300	-0.00009800	-0.00982100	-0.00093600	0.00108300	-0.00163300	-0.03415400	0.01115900	-0.01644900	-0.00501900	0.00769000	0.00884900	-0.02879900	-0.01399200	0.01130400	0.00302100	0.00017200	-0.00289500	0.00106400	0.00102300	0.00374200
4	0.03000000	-0.00401700	0.03257000	-0.00721000	-0.01091400	0.00057300	-0.01614700	-0.00108500	-0.00577500	-0.00058400	-0.03513100	0.01226000	-0.01032300	0.00975100	0.00237700	0.00693200	-0.02810600	-0.00999400	0.01305600	0.00231500	0.00080500	0.00286100	-0.00010800	0.00398200	-0.00211600
5	0.04000000	-0.00653900	0.03273000	-0.00633100	-0.00702700	-0.00285200	-0.01381600	0.00223200	-0.00182300	-0.00730400	-0.04198500	0.01636600	-0.00544000	0.00976300	0.00588600	0.00877900	-0.02205200	-0.00917200	0.01581100	0.00434500	0.00609800	-0.00045100	0.00270700	0.00512000	0.00035200
6	0.05000000	-0.00189900	0.03197000	-0.00243200	-0.00520500	0.00091300	-0.01297200	0.00850200	-0.00201400	-0.00382300	-0.04553400	0.01289900	-0.00434100	0.00399200	-0.00610500	0.00821300	-0.01816500	-0.00718200	0.01209200	0.00366800	0.00433400	0.00065300	0.00091800	0.00785000	-0.00243300
7	0.06000000	-0.00099300	0.03055500	-0.00256200	0.00031800	0.00199500	-0.01184600	0.00316900	-0.00290600	-0.00567100	-0.04284400	0.01166300	-0.00219400	0.00257000	-0.00705900	0.00330900	-0.01354200	-0.00777600	0.01073400	0.00518400	0.00402000	-0.00157000	-0.00131100	0.00523200	-0.00197200
8	0.07000000	-0.00079100	0.02646300	-0.00206300	0.00461800	0.00355600	-0.01166300	0.00252100	-0.00146100	-0.00570200	-0.03892000	0.01257700	-0.00240100	0.00674100	-0.00459300	0.00524700	-0.00421200	-0.00390600	0.00790300	0.00216300	0.00384800	0.00132500	-0.00028500	0.00910000	-0.00228900
9	0.08000000	-0.00165000	0.02267300	-0.00395600	0.00640800	0.00856500	-0.00826900	-0.00086600	-0.00108900	-0.00480800	-0.03068100	0.01187500	-0.00189600	0.01388700	-0.00568900	0.00333000	0.00795900	0.00270900	0.00823900	0.00283900	0.00561200	0.00022000	-0.00094000	0.01171600	-0.00327400
10	0.09000000	-0.00452700	0.02581200	-0.00609800	0.01136400	0.00416100	-0.00959100	-0.00129900	-0.00271000	-0.00271100	-0.01430100	0.00849000	0.00309800	0.00904800	-0.00326800	0.00490400	0.03282700	0.00307200	0.00137400	0.00219300	0.00145100	-0.00332700	0.00318500	0.00762200	0.00116700
11	0.10000000	0.00197200	0.02564600	-0.01113200	0.01274700	0.01190400	-0.00774400	0.00252100	-0.00146100	-0.00570200	0.00046600	0.00722800	-0.00416600	0.00833100	0.00142100	0.00202800	0.03912300	0.00075000	0.00005800	0.00366900	0.00433400	0.00065200	-0.00670900	0.01171200	-0.00432400
12	0.11000000	-0.00307000	0.02596100	-0.00937600	0.01393300	0.00495200	-0.00055500	0.00309800	-0.00073400	-0.00249700	0.01518100	0.00497100	-0.00944400	0.01297000	0.01109100	0.00503300	0.03893300	-0.00945000	-0.00477300	0.00601400	0.00274100	-0.00113800	-0.00217600	0.01125800	0.00287400
13	0.12000000	0.00265400	0.02634400	0.00353400	0.01863800	0.00378300	0.00117500	0.00281000	-0.00109700	-0.00410000	0.02316900	0.01584700	-0.00318900	0.02009200	0.00297300	-0.00057400	0.02330900	-0.01099700	-0.00062500	0.00051500	0.00560600	-0.00109100	0.00187600	0.01285200	-0.00080200
14	0.13000000	0.00471600	0.03095000	0.01033300	0.02312400	0.00460400	0.00340700	0.01044900	-0.00075000	-0.00108200	0.01877800	0.02424300	-0.00301800	0.01525300	0.00539400	0.00099900	0.00985300	-0.00224500	-0.00085100	0.00365900	0.00513300	0.00220300	-0.00458200	0.01375700	0.00316400
15	0.14000000	-0.00549500	0.03191300	0.01793500	0.02149400	0.00781800	0.00091500	0.01636000	0.00301900	-0.00503100	0.01441000	0.02486200	-0.00174600	0.01591200	0.01083600	-0.00336200	0.01460700	-0.00436900	-0.00171400	0.00268800	0.00865500	-0.00131800	-0.00451100	0.01262000	0.00122100
16	0.15000000	-0.00668400	0.03255200	0.01962900	0.02042500	0.00880100	0.00456800	0.02234300	0.00246600	-0.00315400	0.01173800	0.01831200	-0.00280200	0.01571000	0.00908800	0.00022100	0.01923100	-0.00496400	-0.00307200	0.00282000	0.00721000	0.00332000	-0.00516500	0.01523500	0.00023700
17	0.16000000	-0.00431500	0.03128300	0.01622900	0.01926500	0.00678800	-0.00147400	0.01866700	0.00247300	-0.00386200	0.01317700	0.00789100	-0.00890800	0.01503000	0.01046500	0.00188600	0.01747400	-0.00829500	-0.00299800	0.00282000	0.00721000	0.00332000	-0.00509300	0.01409700	-0.00170500
18	0.17000000	-0.00389100	0.03318300	0.01717000	0.02067400	0.00556900	0.00151900	0.01931500	0.00102700	-0.00383200	0.01887300	0.00967900	-0.00280300	0.00995100	0.01445000	0.00249700	0.01532600	-0.00704200	-0.00441200	0.00051600	0.00560600	-0.00109200	-0.00512900	0.01238900	0.00429700
19	0.18000000	-0.00621100	0.02924700	0.01854700	0.02136300	-0.00164500	-0.00252900	0.01592900	0.00139800	-0.00293700	0.01990300	0.00956900	-0.01092500	0.01019100	0.01288700	0.00345700	0.01615000	-0.00456900	-0.00216700	0.00132400	0.00592600	0.00244100	-0.00045600	0.01421300	-0.00245000
20	0.19000000	-0.00832600	0.02985600	0.01375600	0.01640700	0.00276000	-0.00121300	0.01290300	0.00556200	-0.00096700	0.01491600	0.01652900	-0.00371900	0.01250800	0.00388100	0.00396900	0.01185300	-0.00206300	-0.00499400	-0.00166800	0.00335700	0.00068500	-0.00395900	0.01398100	0.00009700
21	0.20000000	-0.00376700	0.03285900	0.01306900	0.01866500	0.00255000	-0.00137100	0.01341000	0.01060900	-0.00359200	0.01089100	0.01533600	-0.01326200	0.01363200	0.00268600	-0.00031700	0.01020200	-0.00024600	0.00002300	-0.00019300	0.00623900	0.00466400	-0.00498600	0.01011500	0.00041000
22	0.21000000	-0.00699600	0.03034100	0.01456900	0.01414800	0.00297500	-0.00105400	0.01463500	0.00989100	-0.00035600	0.00647300	0.01496600	-0.01000000	0.00834800	0.00492700	0.00387600	-0.00149600	-0.00638500	0.00106900	0.00131400	0.00672500	0.00399200	0.00126000	0.01261800	0.00228100
23	0.22000000	-0.00909500	0.03240000	0.01638300	0.00966300	0.00215000	-0.00328600	0.01254400	0.00737100	0.00060300	0.00023500	0.01273200	-0.01105400	0.00279200	0.01203800	0.00256500	-0.00269100	-0.00418500	0.00239600	-0.00018200	0.00544000	0.00311300	-0.00859400	0.01386300	0.00084500
24	0.23000000	-0.01175400	0.03289600	0.02134200	0.00599500	0.00358000	-0.00612200	0.01362600	0.00754300	-0.00146400	-0.00338800	0.01605200	-0.00907200	0.00395000	0.00753500	0.00282200	-0.00505600	-0.00646000	0.00060500	-0.00019200	0.00623900	0.00466300	-0.00042000	0.01136600	0.00161100
25	0.24000000	-0.00923400	0.03274100	0.02046400	0.00151100	0.00275500	-0.00835400	0.01182300	0.00538800	0.00109700	-0.00770200	0.01766700	-0.00978700	-0.00021100	0.00858200	0.00272700	-0.01543300	0.00189600	-0.00052900	0.00132500	0.00592500	0.00244100	-0.00691100	0.01511200	0.00151900
26	0.25000000	-0.01274600	0.02944200	0.02353400	0.00273400	0.00227900	-0.00740800	0.00850700	0.00358500	-0.00118000	-0.00552900	0.02476300	-0.00567500	-0.00158600	0.00782800	0.00421000	-0.00890000	0.00319300	0.00359300	0.00045500	0.01040000	0.00820800	-0.00210100	0.01011400	0.00094100
27	0.26000000	-0.01253500	0.03399500	0.01736100	-0.00444800	0.00564500	-0.00848400	0.00742500	0.00341300	0.00088600	-0.00833000	0.02400000	-0.00386200	0.00001400	0.00351000	0.00184400	-0.00097800	0.00572800	0.00170500	-0.00033200	0.00848200	0.00157400	-0.00636000	0.01647600	0.00039300
28	0.27000000	-0.01424000	0.02640600	0.01358100	-0.00441500	0.00439700	-0.01103200	0.00540600	-0.00128200	-0.00132600	-0.00756000	0.01892600	-0.00204100	0.00786000	0.00453900	0.00011400	-0.00303700	-0.00618600	0.00152100	0.00433800	0.00689500	0.00109700	-0.00217100	0.01124800	0.00288700
29	0.28000000	-0.01150100	0.03079800	0.00653900	-0.00504500	0.00140000	-0.00837900	0.00901000	0.00088600	0.00255300	-0.00830200	0.01622800	-0.00275200	0.00556500	0.00672600	0.00230000	0.00288700	-0.00383500	0.00377700	-0.00099900	0.00591900	0.00112900	-0.00515600	0.01522500	0.00025100
30	0.29000000	-0.00835300	0.02843700	0.00711700	-0.00626800	0.00187700	-0.00932400	0.00360200	-0.00343600	0.00123600	-0.00481500	0.01869100	-0.00187000	0.00026600	0.00545800	0.00464700	-0.00709800	-0.00006100	0.00413200	0.00050700	0.00640400	0.00045700	-0.00282200	0.01386100	0.00190700
31	0.30000000	-0.00696200	0.02369900	0.00592800	-0.00382200	0.00092500	-0.00743300	-0.00346300	-0.00866000	-0.00121900	-0.00399000	0.01461100	-0.00203700	0.00002800	0.00701900	0.00368700	-0.01065700	-0.00013700	0.00366800	-0.00018100	0.00544000	0.00311200	-0.00154800	0.01147600	-0.00018200
32	0.31000000	-0.00647900	0.02038100	0.00486200	-0.00278700	0.00119100	-0.00853700	-0.00418500	-0.01064200	-0.00072300	-0.00124400	0.01438000	-0.00186300	0.00607000	0.01062000	0.00790800	-0.00781400	0.00261100	0.00683100	0.00284300	0.00561100	0.00021900	-0.00508300	0.01408800	-0.00169200
33	0.32000000	-0.00676200	0.01960000	0.00643300	-0.00200400	0.00469400	-0.00659200	-0.00425800	-0.01407100	-0.00019400	0.00812400	0.01384700	0.00028200	0.01254100	0.01089400	0.00766300	-0.00696700	-0.00158900	0.00462900	0.00201500	0.00688900	-0.00021500	-0.00330000	0.01135900	0.00109100
34	0.33000000	-0.00817700	0.01423900	0.00768800	0.00307400	0.00204500	-0.00076200	-0.00274100	-0.00667700	-0.00171600	0.01337000	0.01013700	-0.00314400	0.00303500	0.01047200	0.00352600	-0.00916000	0.00624800	0.00260200	0.00215400	0.00464600	0.00287300	-0.00854400	0.01556300	-0.00514500
